<mxfile host="app.diagrams.net" agent="Mozilla/5.0 (Windows NT 10.0; Win64; x64) AppleWebKit/537.36 (KHTML, like Gecko) Chrome/133.0.0.0 Safari/537.36 OPR/118.0.0.0" version="27.0.4">
  <diagram name="1 oldal" id="bj3XvmOjL8nEpBqa3m8n">
    <mxGraphModel dx="2209" dy="800" grid="1" gridSize="10" guides="1" tooltips="1" connect="1" arrows="1" fold="1" page="1" pageScale="1" pageWidth="827" pageHeight="1169" math="0" shadow="0">
      <root>
        <mxCell id="0" />
        <mxCell id="1" parent="0" />
        <mxCell id="Z-Ww3EHD_tiafVk02B4--1" value="Paciens" style="swimlane;fontStyle=0;childLayout=stackLayout;horizontal=1;startSize=20;horizontalStack=0;resizeParent=1;resizeParentMax=0;resizeLast=0;collapsible=1;marginBottom=0;align=center;fontSize=14;" parent="1" vertex="1">
          <mxGeometry x="40" y="280" width="160" height="230" as="geometry" />
        </mxCell>
        <mxCell id="Z-Ww3EHD_tiafVk02B4--2" value="PaciensID C(10), NN" style="text;strokeColor=#8C8C8C;fillColor=#979797;spacingLeft=4;spacingRight=4;overflow=hidden;rotatable=0;points=[[0,0.5],[1,0.5]];portConstraint=eastwest;fontSize=12;whiteSpace=wrap;html=1;fontColor=#333333;" parent="Z-Ww3EHD_tiafVk02B4--1" vertex="1">
          <mxGeometry y="20" width="160" height="30" as="geometry" />
        </mxCell>
        <mxCell id="Z-Ww3EHD_tiafVk02B4--3" value="Nev C(30), NN" style="text;strokeColor=none;fillColor=none;spacingLeft=4;spacingRight=4;overflow=hidden;rotatable=0;points=[[0,0.5],[1,0.5]];portConstraint=eastwest;fontSize=12;whiteSpace=wrap;html=1;" parent="Z-Ww3EHD_tiafVk02B4--1" vertex="1">
          <mxGeometry y="50" width="160" height="30" as="geometry" />
        </mxCell>
        <mxCell id="Z-Ww3EHD_tiafVk02B4--5" value="TAJszam N(9), NN" style="text;strokeColor=none;fillColor=none;spacingLeft=4;spacingRight=4;overflow=hidden;rotatable=0;points=[[0,0.5],[1,0.5]];portConstraint=eastwest;fontSize=12;whiteSpace=wrap;html=1;" parent="Z-Ww3EHD_tiafVk02B4--1" vertex="1">
          <mxGeometry y="80" width="160" height="30" as="geometry" />
        </mxCell>
        <mxCell id="Z-Ww3EHD_tiafVk02B4--6" value="SzulDatum DATE, NN" style="text;strokeColor=none;fillColor=none;spacingLeft=4;spacingRight=4;overflow=hidden;rotatable=0;points=[[0,0.5],[1,0.5]];portConstraint=eastwest;fontSize=12;whiteSpace=wrap;html=1;" parent="Z-Ww3EHD_tiafVk02B4--1" vertex="1">
          <mxGeometry y="110" width="160" height="30" as="geometry" />
        </mxCell>
        <mxCell id="Z-Ww3EHD_tiafVk02B4--4" value="Irszam N(4), NN" style="text;strokeColor=none;fillColor=none;spacingLeft=4;spacingRight=4;overflow=hidden;rotatable=0;points=[[0,0.5],[1,0.5]];portConstraint=eastwest;fontSize=12;whiteSpace=wrap;html=1;" parent="Z-Ww3EHD_tiafVk02B4--1" vertex="1">
          <mxGeometry y="140" width="160" height="30" as="geometry" />
        </mxCell>
        <mxCell id="LrDBwMWJSnMknx3tDrrj-1" value="Utca C(20), NN" style="text;strokeColor=none;fillColor=none;spacingLeft=4;spacingRight=4;overflow=hidden;rotatable=0;points=[[0,0.5],[1,0.5]];portConstraint=eastwest;fontSize=12;whiteSpace=wrap;html=1;" vertex="1" parent="Z-Ww3EHD_tiafVk02B4--1">
          <mxGeometry y="170" width="160" height="30" as="geometry" />
        </mxCell>
        <mxCell id="LrDBwMWJSnMknx3tDrrj-3" value="Hazszam N(3), NN" style="text;strokeColor=none;fillColor=none;spacingLeft=4;spacingRight=4;overflow=hidden;rotatable=0;points=[[0,0.5],[1,0.5]];portConstraint=eastwest;fontSize=12;whiteSpace=wrap;html=1;" vertex="1" parent="Z-Ww3EHD_tiafVk02B4--1">
          <mxGeometry y="200" width="160" height="30" as="geometry" />
        </mxCell>
        <mxCell id="Z-Ww3EHD_tiafVk02B4--8" value="Orvos" style="swimlane;fontStyle=0;childLayout=stackLayout;horizontal=1;startSize=20;horizontalStack=0;resizeParent=1;resizeParentMax=0;resizeLast=0;collapsible=1;marginBottom=0;align=center;fontSize=14;" parent="1" vertex="1">
          <mxGeometry x="520" y="280" width="160" height="230" as="geometry" />
        </mxCell>
        <mxCell id="Z-Ww3EHD_tiafVk02B4--9" value="OrvosID C(10), NN" style="text;strokeColor=#585858;fillColor=#979797;spacingLeft=4;spacingRight=4;overflow=hidden;rotatable=0;points=[[0,0.5],[1,0.5]];portConstraint=eastwest;fontSize=12;whiteSpace=wrap;html=1;fontColor=#333333;" parent="Z-Ww3EHD_tiafVk02B4--8" vertex="1">
          <mxGeometry y="20" width="160" height="30" as="geometry" />
        </mxCell>
        <mxCell id="Z-Ww3EHD_tiafVk02B4--10" value="Nev C(30), NN" style="text;strokeColor=none;fillColor=none;spacingLeft=4;spacingRight=4;overflow=hidden;rotatable=0;points=[[0,0.5],[1,0.5]];portConstraint=eastwest;fontSize=12;whiteSpace=wrap;html=1;" parent="Z-Ww3EHD_tiafVk02B4--8" vertex="1">
          <mxGeometry y="50" width="160" height="30" as="geometry" />
        </mxCell>
        <mxCell id="Z-Ww3EHD_tiafVk02B4--11" value="Szakterulet C(30), NN" style="text;strokeColor=none;fillColor=none;spacingLeft=4;spacingRight=4;overflow=hidden;rotatable=0;points=[[0,0.5],[1,0.5]];portConstraint=eastwest;fontSize=12;whiteSpace=wrap;html=1;" parent="Z-Ww3EHD_tiafVk02B4--8" vertex="1">
          <mxGeometry y="80" width="160" height="30" as="geometry" />
        </mxCell>
        <mxCell id="Z-Ww3EHD_tiafVk02B4--12" value="Telszam C(15), NN" style="text;strokeColor=none;fillColor=none;spacingLeft=4;spacingRight=4;overflow=hidden;rotatable=0;points=[[0,0.5],[1,0.5]];portConstraint=eastwest;fontSize=12;whiteSpace=wrap;html=1;" parent="Z-Ww3EHD_tiafVk02B4--8" vertex="1">
          <mxGeometry y="110" width="160" height="30" as="geometry" />
        </mxCell>
        <mxCell id="LrDBwMWJSnMknx3tDrrj-36" value="Munkanap C(10), NN" style="text;strokeColor=none;fillColor=none;spacingLeft=4;spacingRight=4;overflow=hidden;rotatable=0;points=[[0,0.5],[1,0.5]];portConstraint=eastwest;fontSize=12;whiteSpace=wrap;html=1;" vertex="1" parent="Z-Ww3EHD_tiafVk02B4--8">
          <mxGeometry y="140" width="160" height="30" as="geometry" />
        </mxCell>
        <mxCell id="Z-Ww3EHD_tiafVk02B4--13" value="Kezdes N(2), NN" style="text;strokeColor=none;fillColor=none;spacingLeft=4;spacingRight=4;overflow=hidden;rotatable=0;points=[[0,0.5],[1,0.5]];portConstraint=eastwest;fontSize=12;whiteSpace=wrap;html=1;" parent="Z-Ww3EHD_tiafVk02B4--8" vertex="1">
          <mxGeometry y="170" width="160" height="30" as="geometry" />
        </mxCell>
        <mxCell id="LrDBwMWJSnMknx3tDrrj-35" value="Veg N(2), NN" style="text;strokeColor=none;fillColor=none;spacingLeft=4;spacingRight=4;overflow=hidden;rotatable=0;points=[[0,0.5],[1,0.5]];portConstraint=eastwest;fontSize=12;whiteSpace=wrap;html=1;" vertex="1" parent="Z-Ww3EHD_tiafVk02B4--8">
          <mxGeometry y="200" width="160" height="30" as="geometry" />
        </mxCell>
        <mxCell id="Z-Ww3EHD_tiafVk02B4--15" value="Recept" style="swimlane;fontStyle=0;childLayout=stackLayout;horizontal=1;startSize=20;horizontalStack=0;resizeParent=1;resizeParentMax=0;resizeLast=0;collapsible=1;marginBottom=0;align=center;fontSize=14;" parent="1" vertex="1">
          <mxGeometry x="280" y="430" width="160" height="170" as="geometry" />
        </mxCell>
        <mxCell id="Z-Ww3EHD_tiafVk02B4--16" value="ReceptID C(10), NN" style="text;strokeColor=#8C8C8C;fillColor=#979797;spacingLeft=4;spacingRight=4;overflow=hidden;rotatable=0;points=[[0,0.5],[1,0.5]];portConstraint=eastwest;fontSize=12;whiteSpace=wrap;html=1;fontColor=#333333;" parent="Z-Ww3EHD_tiafVk02B4--15" vertex="1">
          <mxGeometry y="20" width="160" height="30" as="geometry" />
        </mxCell>
        <mxCell id="Z-Ww3EHD_tiafVk02B4--17" value="PaciensFK C(10), NN" style="text;strokeColor=#666666;fillColor=#C4C4C4;spacingLeft=4;spacingRight=4;overflow=hidden;rotatable=0;points=[[0,0.5],[1,0.5]];portConstraint=eastwest;fontSize=12;whiteSpace=wrap;html=1;fontColor=#333333;" parent="Z-Ww3EHD_tiafVk02B4--15" vertex="1">
          <mxGeometry y="50" width="160" height="30" as="geometry" />
        </mxCell>
        <mxCell id="Z-Ww3EHD_tiafVk02B4--18" value="OrvosFK C(10), NN" style="text;strokeColor=#666666;fillColor=#C4C4C4;spacingLeft=4;spacingRight=4;overflow=hidden;rotatable=0;points=[[0,0.5],[1,0.5]];portConstraint=eastwest;fontSize=12;whiteSpace=wrap;html=1;fontColor=#333333;" parent="Z-Ww3EHD_tiafVk02B4--15" vertex="1">
          <mxGeometry y="80" width="160" height="30" as="geometry" />
        </mxCell>
        <mxCell id="Z-Ww3EHD_tiafVk02B4--19" value="KiallDatum DATE, NN" style="text;strokeColor=none;fillColor=none;spacingLeft=4;spacingRight=4;overflow=hidden;rotatable=0;points=[[0,0.5],[1,0.5]];portConstraint=eastwest;fontSize=12;whiteSpace=wrap;html=1;" parent="Z-Ww3EHD_tiafVk02B4--15" vertex="1">
          <mxGeometry y="110" width="160" height="30" as="geometry" />
        </mxCell>
        <mxCell id="Z-Ww3EHD_tiafVk02B4--20" value="LejarDatum DATE, NN" style="text;strokeColor=none;fillColor=none;spacingLeft=4;spacingRight=4;overflow=hidden;rotatable=0;points=[[0,0.5],[1,0.5]];portConstraint=eastwest;fontSize=12;whiteSpace=wrap;html=1;" parent="Z-Ww3EHD_tiafVk02B4--15" vertex="1">
          <mxGeometry y="140" width="160" height="30" as="geometry" />
        </mxCell>
        <mxCell id="Z-Ww3EHD_tiafVk02B4--22" value="Idopont" style="swimlane;fontStyle=0;childLayout=stackLayout;horizontal=1;startSize=20;horizontalStack=0;resizeParent=1;resizeParentMax=0;resizeLast=0;collapsible=1;marginBottom=0;align=center;fontSize=14;" parent="1" vertex="1">
          <mxGeometry x="280" y="80" width="160" height="200" as="geometry" />
        </mxCell>
        <mxCell id="Z-Ww3EHD_tiafVk02B4--23" value="IdopontID C(10), NN" style="text;strokeColor=#8C8C8C;fillColor=#979797;spacingLeft=4;spacingRight=4;overflow=hidden;rotatable=0;points=[[0,0.5],[1,0.5]];portConstraint=eastwest;fontSize=12;whiteSpace=wrap;html=1;fontColor=#333333;" parent="Z-Ww3EHD_tiafVk02B4--22" vertex="1">
          <mxGeometry y="20" width="160" height="30" as="geometry" />
        </mxCell>
        <mxCell id="Z-Ww3EHD_tiafVk02B4--24" value="OrvosFK C(10), NN" style="text;strokeColor=#666666;fillColor=#C4C4C4;spacingLeft=4;spacingRight=4;overflow=hidden;rotatable=0;points=[[0,0.5],[1,0.5]];portConstraint=eastwest;fontSize=12;whiteSpace=wrap;html=1;fontColor=#333333;" parent="Z-Ww3EHD_tiafVk02B4--22" vertex="1">
          <mxGeometry y="50" width="160" height="30" as="geometry" />
        </mxCell>
        <mxCell id="Z-Ww3EHD_tiafVk02B4--25" value="PaciensFK C(10), NN" style="text;strokeColor=#666666;fillColor=#C4C4C4;spacingLeft=4;spacingRight=4;overflow=hidden;rotatable=0;points=[[0,0.5],[1,0.5]];portConstraint=eastwest;fontSize=12;whiteSpace=wrap;html=1;fontColor=#333333;" parent="Z-Ww3EHD_tiafVk02B4--22" vertex="1">
          <mxGeometry y="80" width="160" height="30" as="geometry" />
        </mxCell>
        <mxCell id="Z-Ww3EHD_tiafVk02B4--26" value="Datum DATE, NN" style="text;strokeColor=none;fillColor=none;spacingLeft=4;spacingRight=4;overflow=hidden;rotatable=0;points=[[0,0.5],[1,0.5]];portConstraint=eastwest;fontSize=12;whiteSpace=wrap;html=1;" parent="Z-Ww3EHD_tiafVk02B4--22" vertex="1">
          <mxGeometry y="110" width="160" height="30" as="geometry" />
        </mxCell>
        <mxCell id="Z-Ww3EHD_tiafVk02B4--27" value="Idopont C(5), NN" style="text;strokeColor=none;fillColor=none;spacingLeft=4;spacingRight=4;overflow=hidden;rotatable=0;points=[[0,0.5],[1,0.5]];portConstraint=eastwest;fontSize=12;whiteSpace=wrap;html=1;" parent="Z-Ww3EHD_tiafVk02B4--22" vertex="1">
          <mxGeometry y="140" width="160" height="30" as="geometry" />
        </mxCell>
        <mxCell id="Z-Ww3EHD_tiafVk02B4--28" value="Allapot C(20), NN" style="text;strokeColor=none;fillColor=none;spacingLeft=4;spacingRight=4;overflow=hidden;rotatable=0;points=[[0,0.5],[1,0.5]];portConstraint=eastwest;fontSize=12;whiteSpace=wrap;html=1;" parent="Z-Ww3EHD_tiafVk02B4--22" vertex="1">
          <mxGeometry y="170" width="160" height="30" as="geometry" />
        </mxCell>
        <mxCell id="Z-Ww3EHD_tiafVk02B4--29" value="Kezeles" style="swimlane;fontStyle=0;childLayout=stackLayout;horizontal=1;startSize=20;horizontalStack=0;resizeParent=1;resizeParentMax=0;resizeLast=0;collapsible=1;marginBottom=0;align=center;fontSize=14;" parent="1" vertex="1">
          <mxGeometry x="280" y="640" width="160" height="170" as="geometry" />
        </mxCell>
        <mxCell id="Z-Ww3EHD_tiafVk02B4--30" value="KezelesID C(10), NN" style="text;strokeColor=#585858;fillColor=#979797;spacingLeft=4;spacingRight=4;overflow=hidden;rotatable=0;points=[[0,0.5],[1,0.5]];portConstraint=eastwest;fontSize=12;whiteSpace=wrap;html=1;fontColor=#333333;" parent="Z-Ww3EHD_tiafVk02B4--29" vertex="1">
          <mxGeometry y="20" width="160" height="30" as="geometry" />
        </mxCell>
        <mxCell id="Z-Ww3EHD_tiafVk02B4--31" value="IdopontFK C(10), NN" style="text;strokeColor=#666666;fillColor=#C4C4C4;spacingLeft=4;spacingRight=4;overflow=hidden;rotatable=0;points=[[0,0.5],[1,0.5]];portConstraint=eastwest;fontSize=12;whiteSpace=wrap;html=1;fontColor=#333333;" parent="Z-Ww3EHD_tiafVk02B4--29" vertex="1">
          <mxGeometry y="50" width="160" height="30" as="geometry" />
        </mxCell>
        <mxCell id="Z-Ww3EHD_tiafVk02B4--32" value="Koltseg N(8), NN" style="text;strokeColor=none;fillColor=none;spacingLeft=4;spacingRight=4;overflow=hidden;rotatable=0;points=[[0,0.5],[1,0.5]];portConstraint=eastwest;fontSize=12;whiteSpace=wrap;html=1;" parent="Z-Ww3EHD_tiafVk02B4--29" vertex="1">
          <mxGeometry y="80" width="160" height="30" as="geometry" />
        </mxCell>
        <mxCell id="Z-Ww3EHD_tiafVk02B4--33" value="Leiras C(255), NN" style="text;strokeColor=none;fillColor=none;spacingLeft=4;spacingRight=4;overflow=hidden;rotatable=0;points=[[0,0.5],[1,0.5]];portConstraint=eastwest;fontSize=12;whiteSpace=wrap;html=1;" parent="Z-Ww3EHD_tiafVk02B4--29" vertex="1">
          <mxGeometry y="110" width="160" height="30" as="geometry" />
        </mxCell>
        <mxCell id="Z-Ww3EHD_tiafVk02B4--34" value="Tipus C(30), NN" style="text;strokeColor=none;fillColor=none;spacingLeft=4;spacingRight=4;overflow=hidden;rotatable=0;points=[[0,0.5],[1,0.5]];portConstraint=eastwest;fontSize=12;whiteSpace=wrap;html=1;" parent="Z-Ww3EHD_tiafVk02B4--29" vertex="1">
          <mxGeometry y="140" width="160" height="30" as="geometry" />
        </mxCell>
        <mxCell id="Z-Ww3EHD_tiafVk02B4--39" style="edgeStyle=orthogonalEdgeStyle;rounded=0;orthogonalLoop=1;jettySize=auto;html=1;exitX=0;exitY=0.5;exitDx=0;exitDy=0;entryX=0.992;entryY=0.7;entryDx=0;entryDy=0;entryPerimeter=0;" parent="1" source="Z-Ww3EHD_tiafVk02B4--17" target="Z-Ww3EHD_tiafVk02B4--2" edge="1">
          <mxGeometry relative="1" as="geometry" />
        </mxCell>
        <mxCell id="Z-Ww3EHD_tiafVk02B4--40" style="edgeStyle=orthogonalEdgeStyle;rounded=0;orthogonalLoop=1;jettySize=auto;html=1;exitX=0;exitY=0.5;exitDx=0;exitDy=0;entryX=0.992;entryY=0.319;entryDx=0;entryDy=0;entryPerimeter=0;" parent="1" source="Z-Ww3EHD_tiafVk02B4--25" target="Z-Ww3EHD_tiafVk02B4--2" edge="1">
          <mxGeometry relative="1" as="geometry" />
        </mxCell>
        <mxCell id="Z-Ww3EHD_tiafVk02B4--42" style="edgeStyle=orthogonalEdgeStyle;rounded=0;orthogonalLoop=1;jettySize=auto;html=1;exitX=1;exitY=0.5;exitDx=0;exitDy=0;entryX=0.021;entryY=0.7;entryDx=0;entryDy=0;entryPerimeter=0;" parent="1" source="Z-Ww3EHD_tiafVk02B4--18" target="Z-Ww3EHD_tiafVk02B4--9" edge="1">
          <mxGeometry relative="1" as="geometry" />
        </mxCell>
        <mxCell id="Z-Ww3EHD_tiafVk02B4--43" style="edgeStyle=orthogonalEdgeStyle;rounded=0;orthogonalLoop=1;jettySize=auto;html=1;exitX=1;exitY=0.5;exitDx=0;exitDy=0;entryX=0.021;entryY=0.304;entryDx=0;entryDy=0;entryPerimeter=0;" parent="1" source="Z-Ww3EHD_tiafVk02B4--24" target="Z-Ww3EHD_tiafVk02B4--9" edge="1">
          <mxGeometry relative="1" as="geometry" />
        </mxCell>
        <mxCell id="Z-Ww3EHD_tiafVk02B4--44" style="edgeStyle=orthogonalEdgeStyle;rounded=0;orthogonalLoop=1;jettySize=auto;html=1;exitX=1;exitY=0.5;exitDx=0;exitDy=0;entryX=1;entryY=0.5;entryDx=0;entryDy=0;" parent="1" source="Z-Ww3EHD_tiafVk02B4--31" target="Z-Ww3EHD_tiafVk02B4--23" edge="1">
          <mxGeometry relative="1" as="geometry">
            <Array as="points">
              <mxPoint x="720" y="705" />
              <mxPoint x="720" y="115" />
            </Array>
          </mxGeometry>
        </mxCell>
        <mxCell id="LrDBwMWJSnMknx3tDrrj-4" value="Paciens_telszam" style="swimlane;fontStyle=0;childLayout=stackLayout;horizontal=1;startSize=20;horizontalStack=0;resizeParent=1;resizeParentMax=0;resizeLast=0;collapsible=1;marginBottom=0;align=center;fontSize=14;" vertex="1" parent="1">
          <mxGeometry x="-200" y="280" width="160" height="80" as="geometry" />
        </mxCell>
        <mxCell id="LrDBwMWJSnMknx3tDrrj-5" value="PaciensFK C(10), NN" style="text;strokeColor=#8C8C8C;fillColor=light-dark(#c4c4c4, #6b6b6b);spacingLeft=4;spacingRight=4;overflow=hidden;rotatable=0;points=[[0,0.5],[1,0.5]];portConstraint=eastwest;fontSize=12;whiteSpace=wrap;html=1;fontColor=#333333;" vertex="1" parent="LrDBwMWJSnMknx3tDrrj-4">
          <mxGeometry y="20" width="160" height="30" as="geometry" />
        </mxCell>
        <mxCell id="LrDBwMWJSnMknx3tDrrj-6" value="Telefonszam C(15), NN" style="text;strokeColor=none;fillColor=none;spacingLeft=4;spacingRight=4;overflow=hidden;rotatable=0;points=[[0,0.5],[1,0.5]];portConstraint=eastwest;fontSize=12;whiteSpace=wrap;html=1;" vertex="1" parent="LrDBwMWJSnMknx3tDrrj-4">
          <mxGeometry y="50" width="160" height="30" as="geometry" />
        </mxCell>
        <mxCell id="LrDBwMWJSnMknx3tDrrj-12" style="edgeStyle=orthogonalEdgeStyle;rounded=0;orthogonalLoop=1;jettySize=auto;html=1;exitX=1;exitY=0.5;exitDx=0;exitDy=0;entryX=0;entryY=0.5;entryDx=0;entryDy=0;" edge="1" parent="1" source="LrDBwMWJSnMknx3tDrrj-5" target="Z-Ww3EHD_tiafVk02B4--2">
          <mxGeometry relative="1" as="geometry" />
        </mxCell>
        <mxCell id="LrDBwMWJSnMknx3tDrrj-26" value="Recept_gyogyszer" style="swimlane;fontStyle=0;childLayout=stackLayout;horizontal=1;startSize=20;horizontalStack=0;resizeParent=1;resizeParentMax=0;resizeLast=0;collapsible=1;marginBottom=0;align=center;fontSize=14;" vertex="1" parent="1">
          <mxGeometry x="280" y="320" width="160" height="80" as="geometry" />
        </mxCell>
        <mxCell id="LrDBwMWJSnMknx3tDrrj-27" value="ReceptFK C(10), NN" style="text;strokeColor=#8C8C8C;fillColor=light-dark(#c4c4c4, #6b6b6b);spacingLeft=4;spacingRight=4;overflow=hidden;rotatable=0;points=[[0,0.5],[1,0.5]];portConstraint=eastwest;fontSize=12;whiteSpace=wrap;html=1;fontColor=#333333;" vertex="1" parent="LrDBwMWJSnMknx3tDrrj-26">
          <mxGeometry y="20" width="160" height="30" as="geometry" />
        </mxCell>
        <mxCell id="LrDBwMWJSnMknx3tDrrj-28" value="Gyogyszer C(10), NN" style="text;strokeColor=none;fillColor=none;spacingLeft=4;spacingRight=4;overflow=hidden;rotatable=0;points=[[0,0.5],[1,0.5]];portConstraint=eastwest;fontSize=12;whiteSpace=wrap;html=1;" vertex="1" parent="LrDBwMWJSnMknx3tDrrj-26">
          <mxGeometry y="50" width="160" height="30" as="geometry" />
        </mxCell>
        <mxCell id="LrDBwMWJSnMknx3tDrrj-29" style="edgeStyle=orthogonalEdgeStyle;rounded=0;orthogonalLoop=1;jettySize=auto;html=1;exitX=0;exitY=0.5;exitDx=0;exitDy=0;entryX=0;entryY=0.5;entryDx=0;entryDy=0;" edge="1" parent="1" source="LrDBwMWJSnMknx3tDrrj-27" target="Z-Ww3EHD_tiafVk02B4--16">
          <mxGeometry relative="1" as="geometry" />
        </mxCell>
      </root>
    </mxGraphModel>
  </diagram>
</mxfile>
